HIERARCHY
ROOT joint_Root
{
	OFFSET 0.0 0.0 0.0
	CHANNELS 6 Xposition Yposition Zposition Zrotation Xrotation Yrotation 
	JOINT Hips
	{
		OFFSET -0.726466 93.3139 -2.00062
		CHANNELS 6 Xposition Yposition Zposition Zrotation Xrotation Yrotation 
		JOINT Spine
		{
			OFFSET 15.7357 0.0 0.0
			CHANNELS 6 Xposition Yposition Zposition Zrotation Xrotation Yrotation 
			JOINT Chest
			{
				OFFSET 8.98455 -0.406207 0.0
				CHANNELS 6 Xposition Yposition Zposition Zrotation Xrotation Yrotation 
				JOINT Neck
				{
					OFFSET 16.3773 0.0 0.0
					CHANNELS 6 Xposition Yposition Zposition Zrotation Xrotation Yrotation 
					JOINT Head
					{
						OFFSET 6.45672 0.0 0.0
						CHANNELS 6 Xposition Yposition Zposition Zrotation Xrotation Yrotation 
						End Site
						{
							OFFSET 0.0 0.0 0.0
						}
					}
				}
				JOINT Shoulder_L
				{
					OFFSET 12.9942 -0.242716 4.98039
					CHANNELS 6 Xposition Yposition Zposition Zrotation Xrotation Yrotation 
					JOINT UpperArm_L
					{
						OFFSET 5.34809 0.0 0.0
						CHANNELS 6 Xposition Yposition Zposition Zrotation Xrotation Yrotation 
						JOINT LowerArm_L
						{
							OFFSET 24.3286 1.87007e-05 0.0
							CHANNELS 6 Xposition Yposition Zposition Zrotation Xrotation Yrotation 
							JOINT Hand_L
							{
								OFFSET 22.2916 0.0 0.0
								CHANNELS 6 Xposition Yposition Zposition Zrotation Xrotation Yrotation 
								End Site
								{
									OFFSET 0.0 0.0 0.0
								}
							}
						}
					}
				}
				JOINT Shoulder_R
				{
					OFFSET 12.9945 -0.242716 -4.98039
					CHANNELS 6 Xposition Yposition Zposition Zrotation Xrotation Yrotation 
					JOINT UpperArm_R
					{
						OFFSET -5.34813 0.0 0.0
						CHANNELS 6 Xposition Yposition Zposition Zrotation Xrotation Yrotation 
						JOINT LowerArm_R
						{
							OFFSET -24.3289 0.000322201 0.0
							CHANNELS 6 Xposition Yposition Zposition Zrotation Xrotation Yrotation 
							JOINT Hand_R
							{
								OFFSET -22.2915 -0.000108084 0.0
								CHANNELS 6 Xposition Yposition Zposition Zrotation Xrotation Yrotation 
								End Site
								{
									OFFSET 0.0 0.0 0.0
								}
							}
						}
					}
				}
			}
		}
		JOINT UpperLeg_L
		{
			OFFSET -2.19248 -6.46944 0.0
			CHANNELS 6 Xposition Yposition Zposition Zrotation Xrotation Yrotation 
			JOINT LowerLeg_L
			{
				OFFSET 39.0811 0.0 -1.23785e-05
				CHANNELS 6 Xposition Yposition Zposition Zrotation Xrotation Yrotation 
				JOINT Foot_L
				{
					OFFSET 40.9854 0.0 -1.26872e-05
					CHANNELS 6 Xposition Yposition Zposition Zrotation Xrotation Yrotation 
					JOINT Toes_L
					{
						OFFSET 11.7543 0.0 0.0
						CHANNELS 6 Xposition Yposition Zposition Zrotation Xrotation Yrotation 
						End Site
						{
							OFFSET 0.0 0.0 0.0
						}
					}
				}
			}
		}
		JOINT UpperLeg_R
		{
			OFFSET -2.19251 6.46944 0.0
			CHANNELS 6 Xposition Yposition Zposition Zrotation Xrotation Yrotation 
			JOINT LowerLeg_R
			{
				OFFSET -39.0811 -0.00228153 -0.0401928
				CHANNELS 6 Xposition Yposition Zposition Zrotation Xrotation Yrotation 
				JOINT Foot_R
				{
					OFFSET -40.9854 0.0 0.0
					CHANNELS 6 Xposition Yposition Zposition Zrotation Xrotation Yrotation 
					JOINT Toes_R
					{
						OFFSET -11.7543 0.0 0.0
						CHANNELS 6 Xposition Yposition Zposition Zrotation Xrotation Yrotation 
						End Site
						{
							OFFSET 0.0 0.0 0.0
						}
					}
				}
			}
		}
	}
}
MOTION
Frames:	7
Frame Time:	0.0333333
0.000000 0.000000 0.000000 0.000000 0.000000 -0.000000 -1.784100 93.203800 -1.387080 88.816400 -2.154950 -0.202390 15.735700 0.000005 -0.000001 104.813000 86.962600 -106.277000 8.984550 -0.406207 -0.000000 -1.870260 1.675860 -2.900220 16.377300 -0.000001 -0.000001 2.694930 -3.528520 6.165170 6.456720 -0.000001 -0.000000 5.243130 -1.710080 -5.812340 12.994200 -0.242716 4.980390 -89.794900 -0.616573 -71.600300 5.348090 -0.000007 -0.000001 -71.010000 31.955900 -9.972420 24.328600 0.000019 0.000005 4.493740 11.960800 -20.767800 22.291600 -0.000001 0.000005 4.987350 5.471780 -5.436760 12.994500 -0.242716 -4.980390 92.477100 -5.809530 -66.858400 -5.348130 -0.000001 -0.000004 -83.885800 -55.865400 -122.586000 -24.328900 0.000322 -0.000009 0.534800 3.843310 -7.940710 -22.291500 -0.000108 -0.000004 26.167400 4.732010 12.554800 -2.192480 -6.469440 -0.000000 -176.206000 -9.474170 -3.844080 39.081100 -0.000007 -0.000012 -0.052663 0.195723 15.059700 40.985400 -0.000006 -0.000013 -0.944748 4.198230 -61.437800 11.754300 -0.000000 0.000003 -0.000005 -0.000065 -16.580100 -2.192510 6.469440 -0.000001 -179.170000 12.266400 178.812000 -39.081100 -0.002282 -0.040193 -0.009037 0.058681 11.905900 -40.985400 0.000008 0.000006 4.067780 6.623930 -61.702800 -11.754300 -0.000006 -0.000006 -0.006643 -0.076569 -19.689900
0.000000 0.000000 0.000000 0.000000 0.000000 -0.000000 -1.762680 93.208300 -1.388370 88.806400 -2.260130 -0.193735 15.735700 0.000005 -0.000001 103.479000 86.970900 -104.887000 8.984550 -0.406207 -0.000000 -1.854520 1.529930 -2.791890 16.377300 -0.000001 -0.000001 2.645620 -3.534250 6.185070 6.456720 -0.000001 -0.000000 5.322540 -1.625480 -5.962760 12.994200 -0.242716 4.980390 -89.738400 -0.790881 -71.693000 5.348090 -0.000007 -0.000001 -70.815300 31.518200 -9.956620 24.328600 0.000019 0.000005 4.530760 12.241500 -20.491700 22.291600 -0.000001 0.000005 4.975360 5.469110 -5.337780 12.994500 -0.242716 -4.980390 92.445200 -5.738020 -66.871700 -5.348130 -0.000001 -0.000004 -85.724000 -54.869300 -123.603000 -24.328900 0.000322 -0.000009 0.159982 1.105180 -8.302370 -22.291500 -0.000108 -0.000004 28.364200 4.660070 13.869300 -2.192480 -6.469440 -0.000000 -176.202000 -9.561570 -3.788280 39.081100 -0.000007 -0.000012 -0.053721 0.200324 15.011600 40.985400 -0.000006 -0.000013 -0.943567 4.162440 -61.430500 11.754300 -0.000000 0.000003 -0.000005 -0.000068 -16.580200 -2.192510 6.469440 -0.000001 -179.178000 12.237800 178.852000 -39.081100 -0.002282 -0.040193 -0.008558 0.056748 11.836800 -40.985400 0.000008 0.000006 4.044140 6.688940 -61.661600 -11.754300 -0.000006 -0.000006 -0.006484 -0.075171 -19.632800
0.000000 0.000000 0.000000 0.000000 0.000000 -0.000000 -1.730680 93.207100 -1.388610 88.790100 -2.429840 -0.232532 15.735700 0.000005 -0.000001 102.920000 86.983500 -104.232000 8.984550 -0.406207 -0.000000 -1.867990 1.458820 -2.599110 16.377300 -0.000001 -0.000001 2.606990 -3.570270 6.119310 6.456720 -0.000001 -0.000000 5.329440 -1.634760 -6.004220 12.994200 -0.242716 4.980390 -89.707800 -0.887585 -71.774400 5.348090 -0.000007 -0.000001 -70.460600 31.332600 -10.089800 24.328600 0.000019 0.000005 4.542020 12.495100 -20.161600 22.291600 -0.000001 0.000005 5.037440 5.467990 -5.295310 12.994500 -0.242716 -4.980390 92.512600 -5.884050 -66.826700 -5.348130 -0.000001 -0.000004 -85.007900 -54.716800 -123.245000 -24.328900 0.000322 -0.000009 0.111661 0.624917 -10.226300 -22.291500 -0.000108 -0.000004 28.412200 4.724760 12.705700 -2.192480 -6.469440 -0.000000 -176.214000 -9.683020 -3.824750 39.081100 -0.000007 -0.000012 -0.053331 0.198393 15.046200 40.985400 -0.000006 -0.000013 -0.924938 4.131620 -61.461100 11.754300 -0.000000 0.000003 -0.000004 -0.000058 -16.579800 -2.192510 6.469440 -0.000001 -179.183000 12.092900 178.789000 -39.081100 -0.002282 -0.040193 -0.009078 0.059169 11.849000 -40.985400 0.000008 0.000006 3.973810 6.736940 -61.637100 -11.754300 -0.000006 -0.000006 -0.006810 -0.078025 -19.749300
0.000000 0.000000 0.000000 0.000000 0.000000 -0.000000 -1.695420 93.216500 -1.408380 88.805200 -2.597940 -0.270795 15.735700 0.000005 -0.000001 102.563000 87.008200 -103.772000 8.984550 -0.406207 -0.000000 -1.909850 1.403210 -2.393950 16.377300 -0.000001 -0.000001 2.595330 -3.605610 6.165460 6.456720 -0.000001 -0.000000 5.297320 -1.651790 -6.062070 12.994200 -0.242716 4.980390 -89.697700 -0.921148 -71.831100 5.348090 -0.000007 -0.000001 -70.113300 30.993000 -10.165200 24.328600 0.000019 0.000005 4.501690 12.543500 -19.926200 22.291600 -0.000001 0.000005 5.121510 5.468570 -5.316100 12.994500 -0.242716 -4.980390 92.597300 -6.085170 -66.832500 -5.348130 -0.000001 -0.000004 -81.921200 -55.424700 -121.939000 -24.328900 0.000322 -0.000009 0.149287 0.653678 -12.965800 -22.291500 -0.000108 -0.000004 27.539200 4.824600 10.844800 -2.192480 -6.469440 -0.000000 -176.265000 -9.772040 -3.797000 39.081100 -0.000007 -0.000012 -0.052619 0.197258 14.935800 40.985400 -0.000006 -0.000013 -0.912826 4.054260 -61.413400 11.754300 -0.000000 0.000003 -0.000006 -0.000083 -16.580800 -2.192510 6.469440 -0.000001 -179.212000 11.918500 178.741000 -39.081100 -0.002282 -0.040193 -0.009040 0.059183 11.811000 -40.985400 0.000008 0.000006 3.987610 6.750220 -61.590500 -11.754300 -0.000006 -0.000006 -0.006397 -0.074401 -19.601400
0.000000 0.000000 0.000000 0.000000 0.000000 -0.000000 -1.680190 93.228700 -1.420580 88.814400 -2.764840 -0.276913 15.735700 0.000005 -0.000001 102.542000 87.008100 -103.654000 8.984550 -0.406207 -0.000000 -1.910730 1.392950 -2.201470 16.377300 -0.000001 -0.000001 2.567320 -3.736030 6.301500 6.456720 -0.000001 -0.000000 5.287390 -1.737060 -6.031380 12.994200 -0.242716 4.980390 -89.702900 -0.906465 -71.848900 5.348090 -0.000007 -0.000001 -69.815300 30.455300 -10.332300 24.328600 0.000019 0.000005 4.575270 12.864500 -19.769300 22.291600 -0.000001 0.000005 5.316020 5.466070 -5.223960 12.994500 -0.242716 -4.980390 92.691000 -6.294570 -66.795700 -5.348130 -0.000001 -0.000004 -78.747900 -56.078900 -121.176000 -24.328900 0.000322 -0.000009 0.194618 0.656034 -16.609200 -22.291500 -0.000108 -0.000004 26.757700 4.918190 9.009250 -2.192480 -6.469440 -0.000000 -176.297000 -9.839320 -3.715780 39.081100 -0.000007 -0.000012 -0.051265 0.194141 14.791700 40.985400 -0.000006 -0.000013 -0.919538 3.931490 -61.350700 11.754300 -0.000000 0.000003 -0.000007 -0.000094 -16.581200 -2.192510 6.469440 -0.000001 -179.212000 11.778700 178.743000 -39.081100 -0.002282 -0.040193 -0.007566 0.052403 11.751600 -40.985400 0.000008 0.000006 4.136530 6.749790 -61.560200 -11.754300 -0.000006 -0.000006 -0.006673 -0.076830 -19.700500
0.000000 0.000000 0.000000 0.000000 0.000000 -0.000000 -1.680140 93.224200 -1.420260 88.814800 -2.867740 -0.306100 15.735700 0.000005 -0.000001 102.781000 87.020200 -103.800000 8.984550 -0.406207 -0.000000 -1.941060 1.404350 -2.012510 16.377300 -0.000001 -0.000001 2.627500 -3.883930 6.451390 6.456720 -0.000001 -0.000000 5.282690 -1.901170 -5.839440 12.994200 -0.242716 4.980390 -89.713000 -0.875747 -71.851000 5.348090 -0.000007 -0.000001 -69.677000 29.795400 -10.505500 24.328600 0.000019 0.000005 4.598450 13.002800 -19.670500 22.291600 -0.000001 0.000005 5.354790 5.461110 -5.041910 12.994500 -0.242716 -4.980390 92.796700 -6.526110 -66.741200 -5.348130 -0.000001 -0.000004 -76.278700 -56.395900 -121.235000 -24.328900 0.000322 -0.000009 0.246832 0.642399 -21.098200 -22.291500 -0.000108 -0.000004 26.244300 5.011010 7.082330 -2.192480 -6.469440 -0.000000 -176.298000 -9.923290 -3.752660 39.081100 -0.000007 -0.000012 -0.052035 0.196496 14.832200 40.985400 -0.000006 -0.000013 -0.923632 3.915730 -61.377200 11.754300 -0.000000 0.000003 -0.000005 -0.000078 -16.580600 -2.192510 6.469440 -0.000001 -179.218000 11.701400 178.680000 -39.081100 -0.002282 -0.040193 -0.008675 0.057501 11.798500 -40.985400 0.000008 0.000006 4.042280 6.783410 -61.559600 -11.754300 -0.000006 -0.000006 -0.006434 -0.074724 -19.614600
0.000000 0.000000 0.000000 0.000000 0.000000 -0.000000 -1.708640 93.225200 -1.415030 88.793600 -2.939270 -0.295106 15.735700 0.000005 -0.000001 103.375000 87.024000 -104.297000 8.984550 -0.406207 -0.000000 -1.963270 1.454720 -1.817530 16.377300 -0.000001 -0.000001 2.696870 -4.059390 6.623040 6.456720 -0.000001 -0.000000 5.421530 -2.091890 -5.702090 12.994200 -0.242716 4.980390 -89.729500 -0.825660 -71.860800 5.348090 -0.000007 -0.000001 -69.607800 29.330700 -10.690700 24.328600 0.000019 0.000005 4.643680 13.153100 -19.643900 22.291600 -0.000001 0.000005 5.560600 5.463700 -5.136890 12.994500 -0.242716 -4.980390 92.876300 -6.675160 -66.624300 -5.348130 -0.000001 -0.000004 -74.012200 -56.450600 -121.724000 -24.328900 0.000322 -0.000009 0.567923 1.157730 -26.134000 -22.291500 -0.000108 -0.000004 26.253600 5.108030 4.928940 -2.192480 -6.469440 -0.000000 -176.248000 -10.036200 -3.712150 39.081100 -0.000007 -0.000012 -0.052192 0.197259 14.820000 40.985400 -0.000006 -0.000013 -0.936107 3.982770 -61.384000 11.754300 -0.000000 0.000003 -0.000005 -0.000074 -16.580400 -2.192510 6.469440 -0.000001 -179.170000 11.623600 178.712000 -39.081100 -0.002282 -0.040193 -0.007606 0.052545 11.762700 -40.985400 0.000008 0.000006 4.111140 6.778610 -61.553900 -11.754300 -0.000006 -0.000006 -0.006305 -0.073578 -19.567900
